<mxfile host="app.diagrams.net" agent="Mozilla/5.0 (Windows NT 10.0; Win64; x64) AppleWebKit/537.36 (KHTML, like Gecko) Chrome/124.0.0.0 Safari/537.36" version="24.7.17">
  <diagram name="Страница — 1" id="Cg-aqZ9xHDv8WkQXUvDe">
    <mxGraphModel dx="1022" dy="555" grid="1" gridSize="10" guides="1" tooltips="1" connect="1" arrows="1" fold="1" page="1" pageScale="1" pageWidth="827" pageHeight="1169" math="0" shadow="0">
      <root>
        <mxCell id="0" />
        <mxCell id="1" parent="0" />
        <mxCell id="y8Zco-ke1Nq_ujvpeB8A-2" style="edgeStyle=orthogonalEdgeStyle;rounded=0;orthogonalLoop=1;jettySize=auto;html=1;" edge="1" parent="1" source="y8Zco-ke1Nq_ujvpeB8A-1" target="y8Zco-ke1Nq_ujvpeB8A-3">
          <mxGeometry relative="1" as="geometry">
            <mxPoint x="260" y="130" as="targetPoint" />
          </mxGeometry>
        </mxCell>
        <mxCell id="y8Zco-ke1Nq_ujvpeB8A-1" value="Start" style="ellipse;whiteSpace=wrap;html=1;" vertex="1" parent="1">
          <mxGeometry x="60" y="90" width="120" height="80" as="geometry" />
        </mxCell>
        <mxCell id="y8Zco-ke1Nq_ujvpeB8A-32" style="edgeStyle=orthogonalEdgeStyle;rounded=0;orthogonalLoop=1;jettySize=auto;html=1;exitX=0.5;exitY=1;exitDx=0;exitDy=0;" edge="1" parent="1" source="y8Zco-ke1Nq_ujvpeB8A-3" target="y8Zco-ke1Nq_ujvpeB8A-5">
          <mxGeometry relative="1" as="geometry">
            <Array as="points">
              <mxPoint x="270" y="160" />
            </Array>
          </mxGeometry>
        </mxCell>
        <mxCell id="y8Zco-ke1Nq_ujvpeB8A-3" value="Enter choise(1/2/3/4)" style="rounded=1;whiteSpace=wrap;html=1;" vertex="1" parent="1">
          <mxGeometry x="210" y="100" width="120" height="60" as="geometry" />
        </mxCell>
        <mxCell id="y8Zco-ke1Nq_ujvpeB8A-16" style="edgeStyle=orthogonalEdgeStyle;rounded=0;orthogonalLoop=1;jettySize=auto;html=1;" edge="1" parent="1" source="y8Zco-ke1Nq_ujvpeB8A-5">
          <mxGeometry relative="1" as="geometry">
            <mxPoint x="120" y="270" as="targetPoint" />
          </mxGeometry>
        </mxCell>
        <mxCell id="y8Zco-ke1Nq_ujvpeB8A-17" style="edgeStyle=orthogonalEdgeStyle;rounded=0;orthogonalLoop=1;jettySize=auto;html=1;entryX=0.5;entryY=0;entryDx=0;entryDy=0;" edge="1" parent="1" source="y8Zco-ke1Nq_ujvpeB8A-5" target="y8Zco-ke1Nq_ujvpeB8A-26">
          <mxGeometry relative="1" as="geometry">
            <mxPoint x="270" y="400" as="targetPoint" />
          </mxGeometry>
        </mxCell>
        <mxCell id="y8Zco-ke1Nq_ujvpeB8A-5" value="if" style="rhombus;whiteSpace=wrap;html=1;" vertex="1" parent="1">
          <mxGeometry x="230" y="230" width="80" height="80" as="geometry" />
        </mxCell>
        <mxCell id="y8Zco-ke1Nq_ujvpeB8A-10" value="" style="endArrow=classic;html=1;rounded=0;" edge="1" parent="1">
          <mxGeometry width="50" height="50" relative="1" as="geometry">
            <mxPoint x="290" y="250" as="sourcePoint" />
            <mxPoint x="430" y="230" as="targetPoint" />
            <Array as="points">
              <mxPoint x="290" y="250" />
            </Array>
          </mxGeometry>
        </mxCell>
        <mxCell id="y8Zco-ke1Nq_ujvpeB8A-14" value="" style="endArrow=classic;html=1;rounded=0;" edge="1" parent="1">
          <mxGeometry width="50" height="50" relative="1" as="geometry">
            <mxPoint x="290" y="290" as="sourcePoint" />
            <mxPoint x="420" y="370" as="targetPoint" />
            <Array as="points">
              <mxPoint x="290" y="290" />
              <mxPoint x="390" y="350" />
            </Array>
          </mxGeometry>
        </mxCell>
        <mxCell id="y8Zco-ke1Nq_ujvpeB8A-21" style="edgeStyle=orthogonalEdgeStyle;rounded=0;orthogonalLoop=1;jettySize=auto;html=1;entryX=0;entryY=0.5;entryDx=0;entryDy=0;" edge="1" parent="1" source="y8Zco-ke1Nq_ujvpeB8A-18" target="y8Zco-ke1Nq_ujvpeB8A-19">
          <mxGeometry relative="1" as="geometry" />
        </mxCell>
        <mxCell id="y8Zco-ke1Nq_ujvpeB8A-18" value="enter number 1&lt;div&gt;enter number 2&lt;/div&gt;" style="rounded=0;whiteSpace=wrap;html=1;" vertex="1" parent="1">
          <mxGeometry x="430" y="210" width="120" height="50" as="geometry" />
        </mxCell>
        <mxCell id="y8Zco-ke1Nq_ujvpeB8A-22" style="edgeStyle=orthogonalEdgeStyle;rounded=0;orthogonalLoop=1;jettySize=auto;html=1;" edge="1" parent="1" source="y8Zco-ke1Nq_ujvpeB8A-19" target="y8Zco-ke1Nq_ujvpeB8A-20">
          <mxGeometry relative="1" as="geometry" />
        </mxCell>
        <mxCell id="y8Zco-ke1Nq_ujvpeB8A-19" value="Add" style="rounded=0;whiteSpace=wrap;html=1;" vertex="1" parent="1">
          <mxGeometry x="580" y="210" width="120" height="50" as="geometry" />
        </mxCell>
        <mxCell id="y8Zco-ke1Nq_ujvpeB8A-20" value="Result" style="rounded=0;whiteSpace=wrap;html=1;" vertex="1" parent="1">
          <mxGeometry x="580" y="290" width="120" height="50" as="geometry" />
        </mxCell>
        <mxCell id="y8Zco-ke1Nq_ujvpeB8A-33" style="edgeStyle=orthogonalEdgeStyle;rounded=0;orthogonalLoop=1;jettySize=auto;html=1;entryX=0;entryY=0.5;entryDx=0;entryDy=0;" edge="1" parent="1" source="y8Zco-ke1Nq_ujvpeB8A-23" target="y8Zco-ke1Nq_ujvpeB8A-24">
          <mxGeometry relative="1" as="geometry" />
        </mxCell>
        <mxCell id="y8Zco-ke1Nq_ujvpeB8A-23" value="enter number 1&lt;div&gt;enter number 2&lt;/div&gt;" style="rounded=0;whiteSpace=wrap;html=1;" vertex="1" parent="1">
          <mxGeometry x="420" y="360" width="110" height="60" as="geometry" />
        </mxCell>
        <mxCell id="y8Zco-ke1Nq_ujvpeB8A-34" style="edgeStyle=orthogonalEdgeStyle;rounded=0;orthogonalLoop=1;jettySize=auto;html=1;" edge="1" parent="1" source="y8Zco-ke1Nq_ujvpeB8A-24" target="y8Zco-ke1Nq_ujvpeB8A-25">
          <mxGeometry relative="1" as="geometry" />
        </mxCell>
        <mxCell id="y8Zco-ke1Nq_ujvpeB8A-24" value="Substract" style="rounded=0;whiteSpace=wrap;html=1;" vertex="1" parent="1">
          <mxGeometry x="560" y="360" width="120" height="60" as="geometry" />
        </mxCell>
        <mxCell id="y8Zco-ke1Nq_ujvpeB8A-25" value="Result" style="rounded=0;whiteSpace=wrap;html=1;" vertex="1" parent="1">
          <mxGeometry x="560" y="440" width="120" height="60" as="geometry" />
        </mxCell>
        <mxCell id="y8Zco-ke1Nq_ujvpeB8A-35" style="edgeStyle=orthogonalEdgeStyle;rounded=0;orthogonalLoop=1;jettySize=auto;html=1;" edge="1" parent="1" source="y8Zco-ke1Nq_ujvpeB8A-26" target="y8Zco-ke1Nq_ujvpeB8A-27">
          <mxGeometry relative="1" as="geometry" />
        </mxCell>
        <mxCell id="y8Zco-ke1Nq_ujvpeB8A-26" value="enter number 1&lt;div&gt;enter number 2&lt;/div&gt;" style="rounded=0;whiteSpace=wrap;html=1;" vertex="1" parent="1">
          <mxGeometry x="210" y="410" width="120" height="60" as="geometry" />
        </mxCell>
        <mxCell id="y8Zco-ke1Nq_ujvpeB8A-36" style="edgeStyle=orthogonalEdgeStyle;rounded=0;orthogonalLoop=1;jettySize=auto;html=1;entryX=0.5;entryY=0;entryDx=0;entryDy=0;" edge="1" parent="1" source="y8Zco-ke1Nq_ujvpeB8A-27" target="y8Zco-ke1Nq_ujvpeB8A-28">
          <mxGeometry relative="1" as="geometry" />
        </mxCell>
        <mxCell id="y8Zco-ke1Nq_ujvpeB8A-27" value="Multiply" style="rounded=0;whiteSpace=wrap;html=1;" vertex="1" parent="1">
          <mxGeometry x="210" y="500" width="120" height="60" as="geometry" />
        </mxCell>
        <mxCell id="y8Zco-ke1Nq_ujvpeB8A-28" value="Result" style="rounded=0;whiteSpace=wrap;html=1;" vertex="1" parent="1">
          <mxGeometry x="210" y="585" width="120" height="60" as="geometry" />
        </mxCell>
        <mxCell id="y8Zco-ke1Nq_ujvpeB8A-37" style="edgeStyle=orthogonalEdgeStyle;rounded=0;orthogonalLoop=1;jettySize=auto;html=1;" edge="1" parent="1" source="y8Zco-ke1Nq_ujvpeB8A-29" target="y8Zco-ke1Nq_ujvpeB8A-30">
          <mxGeometry relative="1" as="geometry" />
        </mxCell>
        <mxCell id="y8Zco-ke1Nq_ujvpeB8A-29" value="enter number 1&lt;div&gt;enter number 2&lt;/div&gt;" style="rounded=0;whiteSpace=wrap;html=1;" vertex="1" parent="1">
          <mxGeometry y="250" width="120" height="60" as="geometry" />
        </mxCell>
        <mxCell id="y8Zco-ke1Nq_ujvpeB8A-38" style="edgeStyle=orthogonalEdgeStyle;rounded=0;orthogonalLoop=1;jettySize=auto;html=1;" edge="1" parent="1" source="y8Zco-ke1Nq_ujvpeB8A-30" target="y8Zco-ke1Nq_ujvpeB8A-31">
          <mxGeometry relative="1" as="geometry" />
        </mxCell>
        <mxCell id="y8Zco-ke1Nq_ujvpeB8A-30" value="Divide" style="rounded=0;whiteSpace=wrap;html=1;" vertex="1" parent="1">
          <mxGeometry y="340" width="120" height="60" as="geometry" />
        </mxCell>
        <mxCell id="y8Zco-ke1Nq_ujvpeB8A-31" value="Result" style="rounded=0;whiteSpace=wrap;html=1;" vertex="1" parent="1">
          <mxGeometry y="430" width="120" height="60" as="geometry" />
        </mxCell>
        <mxCell id="y8Zco-ke1Nq_ujvpeB8A-40" value="&lt;font style=&quot;font-size: 17px;&quot;&gt;chose 1&lt;/font&gt;" style="text;html=1;align=center;verticalAlign=middle;whiteSpace=wrap;rounded=0;rotation=-10;" vertex="1" parent="1">
          <mxGeometry x="309.92" y="209.13" width="70" height="30" as="geometry" />
        </mxCell>
        <mxCell id="y8Zco-ke1Nq_ujvpeB8A-41" value="&lt;span style=&quot;color: rgb(0, 0, 0); font-family: Helvetica; font-size: 17px; font-style: normal; font-variant-ligatures: normal; font-variant-caps: normal; font-weight: 400; letter-spacing: normal; orphans: 2; text-align: center; text-indent: 0px; text-transform: none; widows: 2; word-spacing: 0px; -webkit-text-stroke-width: 0px; white-space: normal; background-color: rgb(251, 251, 251); text-decoration-thickness: initial; text-decoration-style: initial; text-decoration-color: initial; display: inline !important; float: none;&quot;&gt;chose 2&lt;/span&gt;" style="text;whiteSpace=wrap;html=1;rotation=30;" vertex="1" parent="1">
          <mxGeometry x="330" y="300" width="90" height="40" as="geometry" />
        </mxCell>
        <mxCell id="y8Zco-ke1Nq_ujvpeB8A-43" value="&lt;span style=&quot;color: rgb(0, 0, 0); font-family: Helvetica; font-size: 17px; font-style: normal; font-variant-ligatures: normal; font-variant-caps: normal; font-weight: 400; letter-spacing: normal; orphans: 2; text-align: center; text-indent: 0px; text-transform: none; widows: 2; word-spacing: 0px; -webkit-text-stroke-width: 0px; white-space: normal; background-color: rgb(251, 251, 251); text-decoration-thickness: initial; text-decoration-style: initial; text-decoration-color: initial; display: inline !important; float: none;&quot;&gt;chose 3&lt;/span&gt;" style="text;whiteSpace=wrap;html=1;rotation=-90;" vertex="1" parent="1">
          <mxGeometry x="210" y="330" width="90" height="40" as="geometry" />
        </mxCell>
        <mxCell id="y8Zco-ke1Nq_ujvpeB8A-44" value="&lt;span style=&quot;color: rgb(0, 0, 0); font-family: Helvetica; font-size: 17px; font-style: normal; font-variant-ligatures: normal; font-variant-caps: normal; font-weight: 400; letter-spacing: normal; orphans: 2; text-align: center; text-indent: 0px; text-transform: none; widows: 2; word-spacing: 0px; -webkit-text-stroke-width: 0px; white-space: normal; background-color: rgb(251, 251, 251); text-decoration-thickness: initial; text-decoration-style: initial; text-decoration-color: initial; display: inline !important; float: none;&quot;&gt;chose 4&lt;/span&gt;" style="text;whiteSpace=wrap;html=1;" vertex="1" parent="1">
          <mxGeometry x="140" y="240" width="90" height="40" as="geometry" />
        </mxCell>
      </root>
    </mxGraphModel>
  </diagram>
</mxfile>
